<svg width="22" height="20" viewBox="0 0 22 20" fill="none" xmlns="http://www.w3.org/2000/svg">
<path d="M1.625 14.25C1.32663 14.25 1.04048 14.1315 0.829505 13.9205C0.618526 13.7095 0.5 13.4234 0.5 13.125V1.5C0.5 1.10218 0.658035 0.720644 0.93934 0.43934C1.22064 0.158035 1.60218 0 2 0H10.25C10.6478 0 11.0294 0.158035 11.3107 0.43934C11.592 0.720644 11.75 1.10218 11.75 1.5V2.25H14.75C15.1478 2.25 15.5294 2.40804 15.8107 2.68934C16.092 2.97064 16.25 3.35218 16.25 3.75V5.25H20C20.3978 5.25 20.7794 5.40804 21.0607 5.68934C21.342 5.97064 21.5 6.35218 21.5 6.75V18H11.375C11.2755 18 11.1802 18.0395 11.1098 18.1098C11.0395 18.1802 11 18.2755 11 18.375C11 18.4745 11.0395 18.5698 11.1098 18.6402C11.1802 18.7105 11.2755 18.75 11.375 18.75H21.4363C21.3587 18.9694 21.2149 19.1594 21.0249 19.2937C20.8348 19.4281 20.6077 19.5001 20.375 19.5H11.375C11.0766 19.5 10.7905 19.3815 10.5795 19.1705C10.3685 18.9595 10.25 18.6734 10.25 18.375V16.5H6.125C5.82663 16.5 5.54048 16.3815 5.3295 16.1705C5.11853 15.9595 5 15.6734 5 15.375V14.25H1.625ZM11.6863 13.5C11.6087 13.7194 11.4649 13.9094 11.2749 14.0437C11.0848 14.1781 10.8577 14.2501 10.625 14.25H15.5V3.75C15.5 3.55109 15.421 3.36032 15.2803 3.21967C15.1397 3.07902 14.9489 3 14.75 3H11.75V12.75H1.625C1.52554 12.75 1.43016 12.7895 1.35984 12.8598C1.28951 12.9302 1.25 13.0255 1.25 13.125C1.25 13.2245 1.28951 13.3198 1.35984 13.3902C1.43016 13.4605 1.52554 13.5 1.625 13.5H11.6863ZM5.75 14.25H6.125C5.99375 14.25 5.867 14.2725 5.75 14.3137V14.25ZM11 12V1.5C11 1.30109 10.921 1.11032 10.7803 0.96967C10.6397 0.829018 10.4489 0.75 10.25 0.75H2.75V12H11ZM11 16.5V17.3137C11.117 17.2725 11.2437 17.25 11.375 17.25H20.75V6.75C20.75 6.55109 20.671 6.36032 20.5303 6.21967C20.3897 6.07902 20.1989 6 20 6H16.25V15H6.125C6.02554 15 5.93016 15.0395 5.85983 15.1098C5.78951 15.1802 5.75 15.2755 5.75 15.375C5.75 15.4745 5.78951 15.5698 5.85983 15.6402C5.93016 15.7105 6.02554 15.75 6.125 15.75H16.1863C16.1087 15.9694 15.9649 16.1594 15.7749 16.2937C15.5848 16.4281 15.3577 16.5001 15.125 16.5H11Z" fill="white"/>
</svg>
