<svg width="18" height="20" viewBox="0 0 18 20" fill="none" xmlns="http://www.w3.org/2000/svg">
<path d="M16.9798 6.01673L10.9869 0.763019C10.4376 0.271652 9.72639 0 8.98934 0C8.25229 0 7.54109 0.271652 6.99173 0.763019L0.9989 6.01673C0.681648 6.30047 0.428482 6.64853 0.25626 7.03776C0.084038 7.42698 -0.00328862 7.84842 9.46808e-05 8.27403V17.0036C9.46808e-05 17.7983 0.315788 18.5604 0.877724 19.1224C1.43966 19.6843 2.20181 20 2.99651 20H14.9822C15.7769 20 16.539 19.6843 17.101 19.1224C17.6629 18.5604 17.9786 17.7983 17.9786 17.0036V8.26404C17.9805 7.84011 17.8925 7.42059 17.7204 7.0332C17.5482 6.6458 17.2958 6.29935 16.9798 6.01673ZM10.9869 18.0024H6.99173V13.0084C6.99173 12.7435 7.09696 12.4894 7.28427 12.3021C7.47158 12.1148 7.72563 12.0096 7.99053 12.0096H9.98814C10.253 12.0096 10.5071 12.1148 10.6944 12.3021C10.8817 12.4894 10.9869 12.7435 10.9869 13.0084V18.0024ZM15.981 17.0036C15.981 17.2685 15.8757 17.5225 15.6884 17.7098C15.5011 17.8972 15.2471 18.0024 14.9822 18.0024H12.9846V13.0084C12.9846 12.2137 12.6689 11.4515 12.1069 10.8896C11.545 10.3276 10.7828 10.012 9.98814 10.012H7.99053C7.19583 10.012 6.43369 10.3276 5.87175 10.8896C5.30981 11.4515 4.99412 12.2137 4.99412 13.0084V18.0024H2.99651C2.73161 18.0024 2.47756 17.8972 2.29025 17.7098C2.10294 17.5225 1.9977 17.2685 1.9977 17.0036V8.26404C1.99788 8.12223 2.02826 7.98208 2.08682 7.85291C2.14537 7.72375 2.23076 7.60854 2.3373 7.51494L8.33013 2.27121C8.5124 2.11109 8.74672 2.02278 8.98934 2.02278C9.23196 2.02278 9.46628 2.11109 9.64855 2.27121L15.6414 7.51494C15.7479 7.60854 15.8333 7.72375 15.8919 7.85291C15.9504 7.98208 15.9808 8.12223 15.981 8.26404V17.0036Z" fill="white"/>
</svg>
