<svg width="18" height="20" viewBox="0 0 18 20" fill="none" xmlns="http://www.w3.org/2000/svg">
<path fill-rule="evenodd" clip-rule="evenodd" d="M7.796 0.244294C9.653 -0.173706 11 1.42229 11 3.00029V17.0003C11 18.5783 9.653 20.1743 7.796 19.7563C3.334 18.7523 0 14.7663 0 10.0003C0 5.23429 3.334 1.24829 7.796 0.244294ZM13.293 6.29329C13.4805 6.10582 13.7348 6.00051 14 6.00051C14.2652 6.00051 14.5195 6.10582 14.707 6.29329L17.707 9.29329C17.8945 9.48082 17.9998 9.73513 17.9998 10.0003C17.9998 10.2655 17.8945 10.5198 17.707 10.7073L14.707 13.7073C14.5184 13.8895 14.2658 13.9902 14.0036 13.988C13.7414 13.9857 13.4906 13.8805 13.3052 13.6951C13.1198 13.5097 13.0146 13.2589 13.0123 12.9967C13.01 12.7345 13.1108 12.4819 13.293 12.2933L14.586 11.0003H6C5.73478 11.0003 5.48043 10.8949 5.29289 10.7074C5.10536 10.5199 5 10.2655 5 10.0003C5 9.73508 5.10536 9.48072 5.29289 9.29319C5.48043 9.10565 5.73478 9.00029 6 9.00029H14.586L13.293 7.70729C13.1055 7.51977 13.0002 7.26546 13.0002 7.00029C13.0002 6.73513 13.1055 6.48082 13.293 6.29329Z" fill="white"/>
</svg>
