<svg width="18" height="18" viewBox="0 0 18 18" fill="none" xmlns="http://www.w3.org/2000/svg">
<path d="M14.8334 2.33366H13.1667V1.50033C13.1667 1.27931 13.0789 1.06735 12.9226 0.91107C12.7663 0.75479 12.5544 0.666992 12.3334 0.666992C12.1123 0.666992 11.9004 0.75479 11.7441 0.91107C11.5878 1.06735 11.5 1.27931 11.5 1.50033V2.33366H6.50002V1.50033C6.50002 1.27931 6.41222 1.06735 6.25594 0.91107C6.09966 0.75479 5.8877 0.666992 5.66669 0.666992C5.44567 0.666992 5.23371 0.75479 5.07743 0.91107C4.92115 1.06735 4.83335 1.27931 4.83335 1.50033V2.33366H3.16669C2.50365 2.33366 1.86776 2.59705 1.39892 3.06589C0.930079 3.53473 0.666687 4.17062 0.666687 4.83366V14.8337C0.666687 15.4967 0.930079 16.1326 1.39892 16.6014C1.86776 17.0703 2.50365 17.3337 3.16669 17.3337H14.8334C15.4964 17.3337 16.1323 17.0703 16.6011 16.6014C17.07 16.1326 17.3334 15.4967 17.3334 14.8337V4.83366C17.3334 4.17062 17.07 3.53473 16.6011 3.06589C16.1323 2.59705 15.4964 2.33366 14.8334 2.33366ZM15.6667 14.8337C15.6667 15.0547 15.5789 15.2666 15.4226 15.4229C15.2663 15.5792 15.0544 15.667 14.8334 15.667H3.16669C2.94567 15.667 2.73371 15.5792 2.57743 15.4229C2.42115 15.2666 2.33335 15.0547 2.33335 14.8337V9.00033H15.6667V14.8337ZM15.6667 7.33366H2.33335V4.83366C2.33335 4.61265 2.42115 4.40068 2.57743 4.2444C2.73371 4.08812 2.94567 4.00033 3.16669 4.00033H4.83335V4.83366C4.83335 5.05467 4.92115 5.26663 5.07743 5.42291C5.23371 5.5792 5.44567 5.66699 5.66669 5.66699C5.8877 5.66699 6.09966 5.5792 6.25594 5.42291C6.41222 5.26663 6.50002 5.05467 6.50002 4.83366V4.00033H11.5V4.83366C11.5 5.05467 11.5878 5.26663 11.7441 5.42291C11.9004 5.5792 12.1123 5.66699 12.3334 5.66699C12.5544 5.66699 12.7663 5.5792 12.9226 5.42291C13.0789 5.26663 13.1667 5.05467 13.1667 4.83366V4.00033H14.8334C15.0544 4.00033 15.2663 4.08812 15.4226 4.2444C15.5789 4.40068 15.6667 4.61265 15.6667 4.83366V7.33366Z" fill="white"/>
</svg>
