<svg width="18" height="17" viewBox="0 0 18 17" fill="none" xmlns="http://www.w3.org/2000/svg">
<path d="M16.6977 3.40708L9.19766 0.907078C9.06936 0.864307 8.93064 0.864307 8.80234 0.907078L1.30234 3.40708C1.17789 3.44856 1.06965 3.52816 0.992956 3.63458C0.916258 3.741 0.87499 3.86886 0.875 4.00005V10.25C0.875 10.4158 0.940848 10.5748 1.05806 10.692C1.17527 10.8092 1.33424 10.875 1.5 10.875C1.66576 10.875 1.82473 10.8092 1.94194 10.692C2.05915 10.5748 2.125 10.4158 2.125 10.25V4.86723L4.74922 5.74145C4.052 6.86786 3.83029 8.22492 4.13276 9.51466C4.43524 10.8044 5.23718 11.9214 6.3625 12.6204C4.95625 13.1719 3.74062 14.1696 2.85156 15.5336C2.80532 15.6024 2.77321 15.6796 2.75708 15.7608C2.74095 15.8421 2.74113 15.9257 2.75761 16.0069C2.77409 16.0881 2.80654 16.1651 2.85307 16.2337C2.89961 16.3022 2.9593 16.3608 3.02867 16.406C3.09805 16.4513 3.17573 16.4823 3.25719 16.4973C3.33866 16.5122 3.42229 16.5108 3.50322 16.4932C3.58414 16.4756 3.66076 16.442 3.72861 16.3945C3.79646 16.347 3.85418 16.2865 3.89844 16.2165C5.07578 14.4102 6.93516 13.375 9 13.375C11.0648 13.375 12.9242 14.4102 14.1016 16.2165C14.1932 16.3527 14.3348 16.4474 14.4958 16.4801C14.6567 16.5127 14.824 16.4808 14.9616 16.391C15.0991 16.3013 15.1958 16.1611 15.2308 16.0007C15.2657 15.8402 15.2362 15.6725 15.1484 15.5336C14.2594 14.1696 13.0391 13.1719 11.6375 12.6204C12.7617 11.9214 13.5629 10.8052 13.8653 9.51636C14.1678 8.22757 13.9468 6.87144 13.2508 5.74536L16.6977 4.59692C16.8221 4.55546 16.9304 4.47588 17.0071 4.36945C17.0839 4.26302 17.1251 4.13515 17.1251 4.00395C17.1251 3.87275 17.0839 3.74488 17.0071 3.63845C16.9304 3.53203 16.8221 3.45245 16.6977 3.41098V3.40708ZM12.75 8.37505C12.7502 8.9679 12.6098 9.55235 12.3403 10.0804C12.0709 10.6085 11.6801 11.0652 11.1999 11.413C10.7198 11.7608 10.1641 11.9898 9.57833 12.0812C8.99256 12.1727 8.39347 12.1239 7.83019 11.939C7.26692 11.754 6.75553 11.4382 6.33796 11.0173C5.9204 10.5965 5.60857 10.0826 5.42805 9.51791C5.24754 8.9532 5.20349 8.35374 5.29952 7.76871C5.39554 7.18369 5.62891 6.62976 5.98047 6.15239L8.80234 7.08989C8.93064 7.13266 9.06936 7.13266 9.19766 7.08989L12.0195 6.15239C12.4944 6.79614 12.7504 7.57512 12.75 8.37505ZM9 5.84145L3.47656 4.00005L9 2.15864L14.5234 4.00005L9 5.84145Z" fill="white"/>
</svg>
