<svg width="20" height="18" viewBox="0 0 20 18" fill="none" xmlns="http://www.w3.org/2000/svg">
<path d="M18.25 0.75H1.75C1.35218 0.75 0.970644 0.908035 0.68934 1.18934C0.408035 1.47064 0.25 1.85218 0.25 2.25V15.75C0.25 16.1478 0.408035 16.5294 0.68934 16.8107C0.970644 17.092 1.35218 17.25 1.75 17.25H3.00531C3.14726 17.25 3.2863 17.2098 3.40628 17.134C3.52627 17.0581 3.62227 16.9498 3.68313 16.8216C4.04783 16.0516 4.62363 15.4009 5.34357 14.9453C6.06351 14.4897 6.898 14.2478 7.75 14.2478C8.602 14.2478 9.43649 14.4897 10.1564 14.9453C10.8764 15.4009 11.4522 16.0516 11.8169 16.8216C11.8777 16.9498 11.9737 17.0581 12.0937 17.134C12.2137 17.2098 12.3527 17.25 12.4947 17.25H18.25C18.6478 17.25 19.0294 17.092 19.3107 16.8107C19.592 16.5294 19.75 16.1478 19.75 15.75V2.25C19.75 1.85218 19.592 1.47064 19.3107 1.18934C19.0294 0.908035 18.6478 0.75 18.25 0.75ZM7.75 12.75C7.15666 12.75 6.57664 12.5741 6.08329 12.2444C5.58994 11.9148 5.20542 11.4462 4.97836 10.8981C4.7513 10.3499 4.69189 9.74667 4.80764 9.16473C4.9234 8.58279 5.20912 8.04824 5.62868 7.62868C6.04824 7.20912 6.58279 6.9234 7.16473 6.80764C7.74667 6.69189 8.34987 6.7513 8.89805 6.97836C9.44623 7.20542 9.91476 7.58994 10.2444 8.08329C10.5741 8.57664 10.75 9.15666 10.75 9.75C10.75 10.5456 10.4339 11.3087 9.87132 11.8713C9.30871 12.4339 8.54565 12.75 7.75 12.75ZM18.25 15.75H12.9466C12.6196 15.1862 12.2029 14.6796 11.7128 14.25H16C16.1989 14.25 16.3897 14.171 16.5303 14.0303C16.671 13.8897 16.75 13.6989 16.75 13.5V4.5C16.75 4.30109 16.671 4.11032 16.5303 3.96967C16.3897 3.82902 16.1989 3.75 16 3.75H4C3.80109 3.75 3.61032 3.82902 3.46967 3.96967C3.32902 4.11032 3.25 4.30109 3.25 4.5V13.5C3.24992 13.6663 3.30513 13.828 3.40696 13.9595C3.50878 14.091 3.65145 14.185 3.8125 14.2266C3.31114 14.6609 2.88563 15.1758 2.55344 15.75H1.75V2.25H18.25V15.75Z" fill="white"/>
</svg>
